<svg xmlns="http://www.w3.org/2000/svg" viewBox="0 0 48 48" width="96" height="96">
  <radialGradient id="a" cx="19.38" cy="42.035" r="44.899" gradientUnits="userSpaceOnUse">
    <stop offset="0" stop-color="#fd5" />
    <stop offset=".328" stop-color="#ff543f" />
    <stop offset=".348" stop-color="#fc5245" />
    <stop offset=".504" stop-color="#e64771" />
    <stop offset=".643" stop-color="#d53e91" />
    <stop offset=".761" stop-color="#cc39a4" />
    <stop offset=".841" stop-color="#c837ab" />
  </radialGradient>
  <path fill="url(#a)" d="M34.017 41.99l-20 .019c-4.4.004-8.003-3.592-8.008-7.992l-.019-20c-.004-4.4 3.592-8.003 7.992-8.008l20-.019c4.4-.004 8.003 3.592 8.008 7.992l.019 20c.005 4.401-3.592 8.004-7.992 8.008z" />
  <radialGradient id="b" cx="11.786" cy="5.54" r="29.813" gradientTransform="matrix(1 0 0 .6663 0 1.849)" gradientUnits="userSpaceOnUse">
    <stop offset="0" stop-color="#4168c9" />
    <stop offset=".999" stop-color="#4168c9" stop-opacity="0" />
  </radialGradient>
  <path fill="url(#b)" d="M34.017 41.99l-20 .019c-4.4.004-8.003-3.592-8.008-7.992l-.019-20c-.004-4.4 3.592-8.003 7.992-8.008l20-.019c4.4-.004 8.003 3.592 8.008 7.992l.019 20c.005 4.401-3.592 8.004-7.992 8.008z" />
  <path fill="#fff" d="M24 31c-3.859 0-7-3.14-7-7s3.141-7 7-7 7 3.14 7 7-3.141 7-7 7zm0-12c-2.757 0-5 2.243-5 5s2.243 5 5 5 5-2.243 5-5-2.243-5-5-5z" />
  <circle cx="31.5" cy="16.5" r="1.5" fill="#fff" />
  <path fill="#fff" d="M30 37H18c-3.859 0-7-3.14-7-7V18c0-3.86 3.141-7 7-7h12c3.859 0 7 3.14 7 7v12c0 3.86-3.141 7-7 7zM18 13c-2.757 0-5 2.243-5 5v12c0 2.757 2.243 5 5 5h12c2.757 0 5-2.243 5-5V18c0-2.757-2.243-5-5-5H18z" />
</svg>