<svg xmlns="http://www.w3.org/2000/svg" viewBox="0 0 48 48" width="144" height="144"><linearGradient id="a" x1="14.899" x2="33.481" y1="43.815" y2="7.661" gradientTransform="matrix(1 0 0 -1 .108 50.317)" gradientUnits="userSpaceOnUse"><stop offset="0" stop-color="#f22543"/><stop offset=".422" stop-color="#eb2239"/><stop offset="1" stop-color="#e52030"/></linearGradient><path fill="url(#a)" d="M44 23.981C44.011 35.026 35.064 43.989 24.019 44S4.011 35.064 4 24.019C3.989 12.974 12.936 4.011 23.981 4 35.026 3.989 43.989 12.936 44 23.981z"/><path d="M37.773 22.968c0-7.156-5.73-12.552-13.33-12.552-9.767 0-14.215 6.792-14.215 13.104 0 3.148 1.625 7.252 4.637 8.655.486.227.93.244 1.321.055.261-.126.603-.403.742-.995l.556-2.269a1.589 1.589 0 00-.339-1.442c-.626-.76-1.261-2.354-1.261-3.93 0-3.723 2.814-7.68 8.03-7.68 4.33 0 7.354 2.935 7.354 7.137 0 4.727-2.224 8.158-5.287 8.158-.682 0-1.29-.274-1.668-.752-.351-.444-.464-1.023-.321-1.631.196-.826.465-1.694.724-2.534.494-1.598.96-3.107.96-4.355 0-2.283-1.419-3.816-3.53-3.816-2.59 0-4.618 2.572-4.618 5.856 0 1.413.343 2.517.55 3.056-.365 1.544-1.949 8.249-2.27 9.627-.384 1.64-.307 3.804-.148 5.501 1.094.503 2.24.906 3.43 1.207.772-1.279 1.971-3.439 2.442-5.249.132-.508.488-1.866.786-3.001 1.098.794 2.585 1.291 4.076 1.291 6.488-.001 11.379-5.779 11.379-13.441z" opacity=".05"/><path d="M37.273 22.968c0-6.871-5.516-12.052-12.83-12.052-9.423 0-13.715 6.533-13.715 12.604 0 3.036 1.626 6.934 4.349 8.202.127.06.516.241.892.059.238-.116.398-.339.474-.662l.555-2.268a1.096 1.096 0 00-.239-1.008c-.809-.982-1.375-2.729-1.375-4.248 0-3.965 2.99-8.18 8.53-8.18 4.624 0 7.854 3.14 7.854 7.637 0 5.017-2.434 8.658-5.787 8.658-.835 0-1.586-.343-2.06-.942-.448-.566-.595-1.297-.415-2.057.2-.842.471-1.718.733-2.566.482-1.561.938-3.035.938-4.208 0-1.984-1.218-3.316-3.03-3.316-2.309 0-4.118 2.353-4.118 5.356 0 1.493.399 2.605.573 3.018-.279 1.18-1.973 8.348-2.306 9.779-.391 1.675-.282 3.944-.107 5.641.773.328 1.577.594 2.396.824.752-1.233 1.993-3.435 2.464-5.245.164-.63.671-2.563.986-3.762 1.014 1.009 2.681 1.678 4.36 1.678 6.202-.002 10.878-5.565 10.878-12.942z" opacity=".07"/><path fill="#FFF" d="M24.443 11.417c-8.632 0-13.215 5.795-13.215 12.103 0 2.933 1.562 6.585 4.06 7.748.378.177.582.1.668-.267.067-.278.403-1.637.555-2.268a.599.599 0 00-.138-.573c-.827-1.003-1.488-2.847-1.488-4.565 0-4.412 3.34-8.68 9.03-8.68 4.913 0 8.353 3.348 8.353 8.137 0 5.41-2.732 9.158-6.287 9.158-1.963 0-3.433-1.623-2.962-3.615.565-2.377 1.657-4.942 1.657-6.658 0-1.535-.823-2.817-2.53-2.817-2.007 0-3.618 2.075-3.618 4.857 0 1.77.598 2.968.598 2.968s-1.982 8.382-2.345 9.942c-.402 1.722-.246 4.141-.071 5.723.451.177.902.354 1.369.499.817-1.328 2.034-3.506 2.486-5.242.243-.937 1.247-4.755 1.247-4.755.652 1.243 2.557 2.297 4.583 2.297 6.032 0 10.378-5.547 10.378-12.44 0-6.609-5.391-11.552-12.33-11.552z"/></svg>