<svg viewBox="0 0 48 48" xmlns="http://www.w3.org/2000/svg" width="48" height="48"><path fill="#039be5" d="M36.5 12c-1.326 0-2.59.256-3.758.705A7.988 7.988 0 0026 9a7.965 7.965 0 00-5.447 2.152A9.462 9.462 0 0013.5 8 9.5 9.5 0 004 17.5c0 .792.108 1.558.29 2.293A8.48 8.48 0 001 26.5 8.5 8.5 0 009.5 35c.413 0 .816-.039 1.214-.096a8.493 8.493 0 0015.166.803A7.973 7.973 0 0028 36a7.981 7.981 0 006.398-3.211c.679.138 1.382.211 2.102.211C42.299 33 47 28.299 47 22.5S42.299 12 36.5 12z"/><path fill="#fff" d="M15.823 25c.045 0 .076-.037.076-.083 0 .046-.032.083-.076.083zm5.68-1.066a.122.122 0 01.002 0h-.002zM7.138 23.93c.023 0 .045.008.058.016a.123.123 0 00-.056-.017l-.002.001zm16.988-2.021c-.016.039-.046.045-.072.043.004.001.004.003.009.003a.067.067 0 00.063-.046zM15.823 19c.045 0 .076.037.076.082 0-.045-.032-.082-.076-.082zm5.536 3.185c0 .408.211.662.506.835-.296-.173-.506-.426-.506-.835zm16.767 2.544c.025.061-.032.087-.032.087s.057-.026.032-.087zM8.558 21zm1.206.909c-.016.039-.046.045-.072.043.004.001.004.003.009.003.024-.001.049-.011.063-.046zm25.431 2.255a1.711 1.711 0 010 0zm2.635-2.367l-.026-.002s.01.004.024.004l.002-.002zm.002 2.392l.034-.004-.002-.001c-.018 0-.032.005-.032.005z"/><path fill="#fff" d="M6.885 24.462c-.029.07.01.084.02.096.087.058.174.1.262.146.469.229.913.296 1.376.296.944 0 1.53-.462 1.53-1.207v-.014c0-.689-.662-.939-1.282-1.12l-.081-.024c-.468-.14-.871-.261-.871-.545v-.014c0-.243.236-.422.602-.422.406 0 .888.125 1.199.283 0 0 .092.054.125-.027l.192-.476c.018-.045-.014-.08-.046-.098A2.846 2.846 0 008.558 21l-.094.001c-.864 0-1.467.481-1.467 1.17v.014c0 .726.665.962 1.289 1.126l.1.029c.454.128.846.239.846.533v.015c0 .269-.255.47-.665.47-.16 0-.667-.002-1.216-.322-.066-.036-.104-.061-.155-.09-.027-.016-.095-.042-.124.039l-.187.477zm14.362 0c-.029.07.01.084.02.096.087.058.174.1.262.146.469.229.913.296 1.376.296.944 0 1.53-.462 1.53-1.207v-.014c0-.689-.662-.939-1.282-1.12l-.081-.024c-.468-.14-.871-.261-.871-.545v-.014c0-.243.236-.422.602-.422.406 0 .888.125 1.199.283 0 0 .092.054.125-.027l.192-.476c.018-.045-.014-.08-.046-.098A2.846 2.846 0 0022.92 21l-.094.001c-.864 0-1.467.481-1.467 1.17v.014c0 .726.666.962 1.289 1.126l.1.029c.454.128.846.239.846.533v.015c0 .269-.255.47-.665.47-.16 0-.667-.002-1.216-.322-.066-.036-.105-.06-.155-.09-.017-.01-.097-.039-.124.039l-.187.477zm10.218-2.243a1.719 1.719 0 00-.358-.635 1.71 1.71 0 00-.605-.426 2.107 2.107 0 00-.844-.158c-.32 0-.604.053-.845.157s-.444.248-.604.427a1.708 1.708 0 00-.358.634c-.077.241-.116.505-.116.785s.039.544.116.785c.077.242.197.456.358.635.16.179.364.322.605.423s.524.154.844.154c.319 0 .602-.051.844-.153a1.7 1.7 0 00.605-.423c.16-.178.281-.392.358-.635.077-.241.116-.505.116-.785s-.039-.544-.116-.785m-.788.785c0 .423-.085.758-.253.993-.166.233-.417.347-.767.347s-.6-.114-.763-.347c-.166-.236-.249-.57-.249-.993s.084-.756.249-.99c.164-.231.414-.343.764-.343s.6.112.767.343c.167.233.252.567.252.99m7.256 1.229c-.026-.071-.101-.044-.101-.044a1.888 1.888 0 01-.366.097 3.023 3.023 0 01-.431.029c-.381 0-.684-.105-.901-.313-.217-.208-.339-.544-.338-.999.001-.413.109-.724.302-.962.192-.236.485-.357.874-.357.325 0 .573.035.832.11 0 0 .062.025.091-.05.07-.178.12-.304.194-.499.021-.056-.03-.079-.049-.086a3.303 3.303 0 00-.525-.124 4.664 4.664 0 00-.591-.035 2.3 2.3 0 00-.878.157 1.81 1.81 0 00-.635.426 1.784 1.784 0 00-.383.634 2.337 2.337 0 00-.128.787c0 .606.176 1.095.524 1.453.349.361.872.543 1.555.543.404 0 .817-.076 1.116-.184 0 0 .057-.026.032-.087l-.194-.496zm4.03-2.152a1.548 1.548 0 00-.847-.937 2.068 2.068 0 00-.764-.144 2.22 2.22 0 00-.88.159 1.748 1.748 0 00-.614.435 1.748 1.748 0 00-.361.642 2.582 2.582 0 00-.117.789c0 .285.041.551.121.79.081.241.211.453.386.629.176.177.401.315.671.412.268.096.594.146.968.145.77-.002 1.176-.161 1.343-.247.03-.016.057-.042.023-.119l-.175-.453c-.026-.067-.1-.043-.1-.043-.191.066-.462.184-1.095.183-.414-.001-.72-.113-.912-.291-.197-.181-.294-.447-.31-.822l2.666.002s.07-.001.078-.065c.001-.027.09-.509-.081-1.065m-2.652.516c.038-.235.107-.431.216-.583.163-.231.412-.359.762-.359.35 0 .581.128.747.359.11.153.158.356.177.584l-1.902-.001zm-18.858-.516a1.537 1.537 0 00-.847-.937 2.066 2.066 0 00-.763-.144c-.333 0-.635.052-.881.159a1.748 1.748 0 00-.614.435 1.748 1.748 0 00-.361.642 2.582 2.582 0 00-.117.789c0 .285.041.551.121.79.081.241.211.453.386.629.176.177.401.315.671.412.268.096.594.146.968.145.77-.002 1.176-.161 1.343-.247.03-.016.057-.042.023-.119l-.175-.453c-.026-.067-.1-.043-.1-.043-.191.066-.462.184-1.095.183-.413-.001-.72-.113-.912-.291-.197-.181-.294-.447-.31-.822l2.666.002s.07-.001.078-.065c.002-.027.09-.509-.081-1.065m-2.651.516c.038-.235.107-.431.215-.583.164-.231.412-.359.763-.359.35 0 .581.128.748.359.11.153.158.356.176.584l-1.902-.001zm-4.872-.115a6.649 6.649 0 00-.416-.011 2.7 2.7 0 00-.657.078 1.779 1.779 0 00-.556.239c-.162.108-.292.245-.387.408s-.143.355-.143.569c0 .219.041.409.122.564.081.156.198.286.347.387.148.1.331.174.543.218.211.043.448.066.708.066.274 0 .546-.021.81-.063.262-.041.582-.101.671-.121.089-.019.187-.044.187-.044.066-.016.061-.081.061-.081l-.001-2.259c0-.496-.143-.863-.423-1.091-.281-.226-.694-.341-1.226-.341-.2 0-.521.025-.715.061 0 0-.582.105-.821.279 0 0-.053.03-.024.098l.189.47c.024.061.088.04.088.04s.02-.007.044-.021c.512-.258 1.161-.251 1.161-.251.288 0 .51.054.659.16.145.104.219.259.219.589v.105c-.229-.031-.44-.048-.44-.048m-1.061 1.736a.47.47 0 01-.153-.147.558.558 0 01-.08-.321c0-.217.078-.373.238-.478-.001 0 .23-.185.773-.179.382.004.724.057.724.057v1.123s-.339.067-.72.088c-.542.031-.784-.144-.782-.143m22.891-3.049c.02-.058-.022-.085-.04-.092a2.529 2.529 0 00-.447-.073c-.335-.019-.521.034-.688.106-.166.071-.349.187-.45.318l-.001-.311a.075.075 0 00-.076-.077h-.684a.074.074 0 00-.076.077v3.806c0 .043.036.077.081.077h.7c.045 0 .08-.034.08-.077v-1.901c0-.256.03-.51.089-.67a.94.94 0 01.233-.375.815.815 0 01.33-.19c.124-.036.261-.049.357-.049.14 0 .293.035.293.035.052.005.08-.025.098-.069.047-.116.177-.466.201-.535"/><path fill="#fff" d="M28.203 19.106a2.098 2.098 0 00-.626-.09c-.482 0-.862.137-1.129.406-.265.267-.446.674-.536 1.209l-.05.366h-.605s-.074-.003-.089.078l-.099.554c-.007.053.016.086.087.086h.59l-.598 3.337a4.16 4.16 0 01-.16.657 1.334 1.334 0 01-.186.379.5.5 0 01-.244.189 1.017 1.017 0 01-.528.021.595.595 0 01-.144-.046s-.069-.026-.097.043c-.022.057-.178.489-.197.542-.019.053.007.094.041.106.078.028.137.046.243.071.149.035.274.037.391.037.245 0 .469-.034.654-.101a1.24 1.24 0 00.493-.343c.155-.172.253-.352.346-.597.093-.243.171-.544.235-.896l.6-3.399h.878s.074.003.089-.078l.099-.554c.007-.053-.016-.086-.087-.086h-.853c.004-.019.06-.505.158-.787a.772.772 0 01.187-.285.555.555 0 01.223-.139 1.08 1.08 0 01.505-.019c.082.018.115.027.137.033.087.027.098.001.116-.041l.203-.56c.023-.06-.028-.085-.047-.093m-12.304 5.811c0 .046-.032.083-.076.083h-.707c-.045 0-.076-.037-.076-.083v-5.834c0-.046.032-.082.076-.082h.707c.045 0 .076.037.076.082v5.834z"/></svg>