<svg viewBox="0 0 48 48" xmlns="http://www.w3.org/2000/svg" width="48" height="48"><path fill="#FFB300" d="M31.2 10.6l-6.6 2.3-1.4-4.3c-.6-1.8.3-3.8 2.2-4.4 1.8-.6 3.8.3 4.4 2.2l1.4 4.2zm-2 16l6.6-2.3-2.3-7.1-6.6 2.3 2.3 7.1zm3.4 10.2c.5 1.4 1.9 2.4 3.3 2.4.4 0 .8-.1 1.1-.2 1.8-.6 2.8-2.6 2.2-4.4L38 31l-6.6 2.3 1.2 3.5z"/><path fill="#00BFA5" d="M17.2 15.5l-6.6 2.3-1.4-4.2c-.6-1.8.3-3.8 2.2-4.4 1.8-.6 3.8.3 4.4 2.2l1.4 4.1zm1.4 26.3c.5 1.4 1.9 2.4 3.3 2.4.4 0 .8-.1 1.1-.2 1.8-.6 2.8-2.6 2.2-4.4L24 35.9l-6.6 2.3 1.2 3.6zm.8-19.6l-6.6 2.3 2.3 7.1 6.6-2.3-2.3-7.1z"/><path fill="#00BCD4" d="M33.4 17.3l-2.2-6.6 4.1-1.4c1.8-.6 3.8.3 4.4 2.2.6 1.8-.3 3.8-2.2 4.4l-4.1 1.4zm-6.6 2.3L24.6 13l-7.4 2.6 2.2 6.6 7.4-2.6zm-20.4-.3c-1.8.6-2.8 2.6-2.2 4.4.5 1.5 1.9 2.4 3.3 2.4.4 0 .8-.1 1.1-.2l4.1-1.4-2.2-6.6-4.1 1.4z"/><path fill="#E91E63" d="M15.1 31.5l2.2 6.6-4.7 1.6c-.4.1-.8.2-1.1.2-1.5 0-2.8-.9-3.3-2.4-.6-1.8.3-3.8 2.2-4.4l4.7-1.6zm28.6-6.2c-.6-1.8-2.6-2.8-4.4-2.2l-3.5 1.2L38 31l3.6-1.2c1.8-.7 2.8-2.7 2.1-4.5zm-22 3.9l2.2 6.6 7.4-2.6-2.2-6.6-7.4 2.6z"/><path fill="#388E3C" d="M33.4 17.3l-2.2-6.7-6.6 2.3 2.2 6.7z"/><path fill="#00897B" d="M17.2 15.5l-6.6 2.3 2.2 6.7 6.6-2.3z"/><path fill="#BF360C" d="M29.2 26.6l2.2 6.7L38 31l-2.2-6.7z"/><path fill="#4E342E" d="M15.1 31.5l2.2 6.7 6.6-2.3-2.2-6.7z"/></svg>