<svg xmlns="http://www.w3.org/2000/svg" viewBox="0 0 48 48" width="96" height="96"><path fill="#03A9F4" d="M41.765 38H6.235C4.439 38 3 36.63 3 34.848v-22.62A3.225 3.225 0 016.235 9h35.529A3.226 3.226 0 0145 12.228v22.62C45 36.63 43.56 38 41.765 38z"/><path fill="#FFF" d="M36.847 23.277c.069-1.101.354-1.613.926-1.613.548 0 .848.527.886 1.613h-1.812zm4.106.658c0-1.23-.27-2.203-.781-2.885-.54-.697-1.346-1.05-2.359-1.05-2.088 0-3.396 1.546-3.396 4.022 0 1.384.345 2.427 1.038 3.085.617.595 1.503.893 2.63.893 1.047 0 2.017-.251 2.632-.655l-.268-1.688a4.325 4.325 0 01-2.095.511c-.47 0-.806-.103-1.044-.308-.262-.219-.408-.572-.46-1.076h4.068c.026-.115.035-.678.035-.849zm-9.896 1.598c-.221.377-.531.58-.89.58-.241 0-.472-.053-.669-.147v-3.718c.428-.441.814-.491.942-.491.631 0 .941.681.941 2.017.003.76-.112 1.352-.324 1.759zm2.056-4.824c-.438-.571-1.059-.853-1.845-.853-.712 0-1.343.302-1.934.936l-.142-.784H27V31l2.481-.416.017-2.799c.387.121.779.185 1.131.185.627 0 1.53-.157 2.235-.926.667-.73.996-1.862.996-3.361 0-1.325-.245-2.33-.747-2.974zm-9.586-.701H26V28h-2.473v-7.992zm1.257-.775c.718 0 1.3-.594 1.3-1.313 0-.733-.584-1.32-1.3-1.32a1.317 1.317 0 100 2.633zm-2.321.667c-.705 0-1.279.372-1.491 1.031l-.15-.921h-2.17V28h2.482v-5.25c.312-.382.749-.52 1.362-.52.127 0 .256 0 .438.026v-2.294a2.164 2.164 0 00-.471-.062zm-4.783 1.955l.308-1.848h-1.601v-2.245l-2.129.354-.309 1.891-.749.123-.277 1.726h1.024v3.622c0 .941.238 1.599.72 1.998.421.335 1.011.493 1.843.493.654 0 1.043-.112 1.297-.184v-1.959c-.133.041-.48.115-.716.115-.48 0-.705-.25-.705-.825v-3.265h1.294v.004zm-7.149 1.195c-.707-.265-1.118-.473-1.118-.803 0-.275.229-.434.646-.434.737 0 1.509.281 2.023.544l.3-1.829C11.964 20.326 11.113 20 9.94 20c-.84 0-1.535.22-2.014.621-.532.429-.802 1.043-.802 1.786 0 1.347.824 1.918 2.166 2.402.857.308 1.154.527 1.154.868 0 .322-.274.514-.795.514-.624 0-1.641-.31-2.327-.703l-.282 1.853c.576.322 1.636.659 2.748.659.887 0 1.622-.21 2.102-.606.568-.432.844-1.077.844-1.905.002-1.383-.843-1.958-2.203-2.439z"/></svg>