<svg viewBox="0 0 48 48" xmlns="http://www.w3.org/2000/svg" width="48" height="48"><path fill="#8343c8" d="M41.754 27.958l-8.455 9.699a1 1 0 01-.754.343H26.37a.996.996 0 00-.651.241l-6.438 5.519a1 1 0 01-.651.24H17a1 1 0 01-1-1v-4a1 1 0 00-1-1H7a1 1 0 01-1-1V15.943c0-.156.036-.309.106-.448l3.981-7.943c.17-.338.516-.552.894-.552H41a1 1 0 011 1v19.301a.997.997 0 01-.246.657z"/><path fill="#fafafa" d="M39 26.369L34 32h-7l-7 6v-6l-8-.024V10h27v16.369z"/><path fill="#8343c8" d="M21 16h3v10h-3zM30 16h3v10h-3z"/></svg>