<svg viewBox="0 0 48 48" xmlns="http://www.w3.org/2000/svg" width="48" height="48"><path fill="#fff" d="M24 4.05a19.95 19.95 0 100 39.9 19.95 19.95 0 100-39.9z"/><path fill="#01579b" d="M8.001 24c0 6.336 3.68 11.806 9.018 14.4L9.385 17.488A15.942 15.942 0 008.001 24zm26.803-.806c0-1.977-1.063-3.35-1.67-4.412-.813-1.329-1.576-2.437-1.576-3.752 0-1.465 1.471-2.84 3.041-2.84.071 0 .135.006.206.008A15.901 15.901 0 0024.001 8c-5.389 0-10.153 2.666-13.052 6.749.228.074.307.039.611.039 1.669 0 4.264-.2 4.264-.2.86-.057.965 1.212.099 1.316 0 0-.864.105-1.828.152l5.931 17.778 3.5-10.501-2.603-7.248c-.861-.046-1.679-.152-1.679-.152-.862-.056-.762-1.375.098-1.316 0 0 2.648.2 4.217.2 1.675 0 4.264-.2 4.264-.2.861-.057.965 1.212.104 1.316 0 0-.87.105-1.832.152l5.891 17.61 1.599-5.326c.814-2.08 1.219-3.8 1.219-5.175zm-10.523 2.202l-4.8 13.952c1.436.426 2.95.652 4.52.652 1.861 0 3.649-.324 5.316-.907-.04-.071-.085-.143-.118-.22l-4.918-13.477zm13.762-9.078c.071.51.108 1.059.108 1.645 0 1.628-.306 3.451-1.219 5.737l-4.885 14.135A15.994 15.994 0 0040 24a16 16 0 00-1.957-7.682z"/><path fill="#01579b" d="M4 24c0 11.024 8.97 20 19.999 20C35.03 44 44 35.024 44 24S35.03 4 24 4 4 12.976 4 24zm1.995 0c0-9.924 8.074-17.999 18.004-17.999S42.005 14.076 42.005 24 33.929 42.001 24 42.001c-9.928 0-18.005-8.077-18.005-18.001z"/></svg>